<?xml version="1.0" encoding="UTF-8" standalone="no"?><!DOCTYPE svg PUBLIC "-//W3C//DTD SVG 1.1//EN" "http://www.w3.org/Graphics/SVG/1.1/DTD/svg11.dtd"><svg width="100%" height="100%" viewBox="0 0 100 100" version="1.1" xmlns="http://www.w3.org/2000/svg" xmlns:xlink="http://www.w3.org/1999/xlink" xml:space="preserve" style="fill-rule:evenodd;clip-rule:evenodd;stroke-linejoin:round;stroke-miterlimit:1.41421;"><path d="M90.099,53.779c0,11.077 -8.989,20.066 -20.066,20.066c-4.177,0 -8.082,-1.271 -11.35,-3.541l4.54,15.708c0.363,1.362 -0.636,2.815 -2.089,2.815l-11.259,-5.448l-11.168,5.539c-1.453,0 -2.542,-1.362 -2.088,-2.815l4.539,-15.708c-3.268,2.179 -7.173,3.541 -11.349,3.541c-11.078,0 -20.067,-8.989 -20.067,-20.067c-0.091,-11.168 8.989,-20.157 20.067,-20.157c0.363,0 0.635,0 0.908,0c-0.636,-1.907 -0.908,-3.904 -0.908,-6.083c0,-11.078 8.989,-20.067 20.066,-20.067c11.078,0 20.067,8.989 20.067,20.067c0,2.088 -0.363,4.176 -0.908,6.083c0.272,0 0.635,0 0.908,0c11.077,0 20.157,8.989 20.157,20.067Z" style="fill-rule:nonzero;"/></svg>