<?xml version="1.0" encoding="UTF-8" standalone="no"?><!DOCTYPE svg PUBLIC "-//W3C//DTD SVG 1.1//EN" "http://www.w3.org/Graphics/SVG/1.1/DTD/svg11.dtd"><svg width="100%" height="100%" viewBox="0 0 300 300" version="1.1" xmlns="http://www.w3.org/2000/svg" xmlns:xlink="http://www.w3.org/1999/xlink" xml:space="preserve" style="fill-rule:evenodd;clip-rule:evenodd;stroke-linecap:round;stroke-linejoin:round;"><g><path d="M127.795,95.022c0.369,-0.434 -7.488,-29.95 -45.037,-46.264c-21.605,48.842 -76.336,123.473 -38.959,168.039c36.353,43.346 143.037,17.06 166.602,12.799c23.561,-4.264 70.701,38.03 76.889,15.984c6.238,-24.526 -46.023,-39.411 -51.07,-46.576c-5.051,-7.164 -2.846,-44.476 -21.899,-80.707c-12.441,-27.75 -34.782,-57.345 -60.026,-70.281l-26.5,47.006Z" style="fill:#ff3038;fill-rule:nonzero;stroke:#670000;stroke-width:8.01px;"/><path d="M32.834,115.125l0.259,0.002l0.259,0.002l0.259,0.004l0.258,0.004l0.257,0.006l0.258,0.006l0.257,0.008l0.256,0.009l0.257,0.009l0.255,0.011l0.256,0.012l0.255,0.013l0.255,0.013l0.254,0.015l0.254,0.016l0.254,0.017l0.253,0.018l0.253,0.019l0.253,0.019l0.252,0.021l0.252,0.022l0.251,0.023l0.251,0.024l0.251,0.024l0.251,0.026l0.25,0.027l0.249,0.027l0.25,0.029l0.249,0.029l0.248,0.031l0.248,0.031l0.248,0.033l0.248,0.033l0.247,0.034l0.247,0.035l0.246,0.036l0.246,0.037l0.246,0.038l0.245,0.039l0.245,0.04l0.245,0.04l0.244,0.042l0.244,0.042l0.244,0.043l0.243,0.045l0.243,0.045l0.242,0.046l0.242,0.046l0.242,0.048l0.241,0.048l0.242,0.05l0.24,0.05l0.241,0.051l0.24,0.052l0.24,0.052l0.239,0.054l0.239,0.054l0.239,0.055l0.238,0.056l0.238,0.057l0.237,0.057l0.238,0.059l0.237,0.059l0.236,0.06l0.237,0.061l0.236,0.061l0.235,0.062l0.235,0.064l0.235,0.063l0.235,0.065l0.234,0.065l0.234,0.066l0.234,0.067l0.233,0.068l0.233,0.068l0.236,0.07l0.461,0.14l0.463,0.143l0.461,0.146l0.461,0.149l0.459,0.152l0.458,0.154l0.456,0.157l0.455,0.16l0.455,0.163l0.452,0.165l0.452,0.167l0.451,0.171l0.449,0.172l0.448,0.175l0.447,0.178l0.445,0.18l0.445,0.182l0.443,0.185l0.443,0.187l0.441,0.189l0.44,0.191l0.439,0.193l0.438,0.196l0.437,0.198l0.436,0.2l0.434,0.201l0.434,0.204l0.433,0.206l0.432,0.208l0.43,0.209l0.43,0.212l0.429,0.213l0.428,0.215l0.426,0.217l0.426,0.219l0.425,0.22l0.424,0.222l0.424,0.223l0.422,0.225l0.421,0.227l0.421,0.228l0.42,0.23l0.418,0.231l0.418,0.233l0.418,0.234l0.416,0.235l0.416,0.237l0.415,0.238l0.414,0.239l0.413,0.24l0.413,0.242l0.412,0.243l0.411,0.244l0.411,0.245l0.41,0.246l0.409,0.247l0.409,0.248l0.403,0.247l0.25,0.165l0.236,0.184l0.222,0.201l0.207,0.216l0.19,0.232l0.171,0.245l0.153,0.258l0.134,0.268l0.113,0.277l0.091,0.285l0.071,0.291l0.048,0.296l0.026,0.298l0.004,0.299l-0.018,0.299l-0.041,0.297l-0.063,0.292l-0.085,0.288l-0.105,0.28l-0.127,0.271l-0.146,0.261l-0.166,0.25l-0.183,0.236l-0.201,0.222l-0.217,0.207l-0.232,0.189l-0.245,0.172l-0.257,0.153l-0.269,0.134l-0.277,0.112l-0.285,0.092l-0.291,0.071l-0.295,0.048l-0.299,0.026l-0.299,0.004l-0.299,-0.018l-0.296,-0.041l-0.293,-0.063l-0.287,-0.085l-0.28,-0.106l-0.272,-0.126l-0.261,-0.146l-0.396,-0.242l-0.391,-0.238l-0.392,-0.236l-0.392,-0.236l-0.392,-0.234l-0.392,-0.233l-0.393,-0.231l-0.392,-0.23l-0.393,-0.228l-0.393,-0.227l-0.394,-0.226l-0.393,-0.224l-0.394,-0.222l-0.394,-0.221l-0.394,-0.22l-0.395,-0.217l-0.395,-0.216l-0.395,-0.215l-0.395,-0.213l-0.396,-0.21l-0.396,-0.21l-0.396,-0.207l-0.397,-0.206l-0.397,-0.203l-0.397,-0.202l-0.398,-0.2l-0.398,-0.198l-0.399,-0.196l-0.398,-0.194l-0.4,-0.192l-0.399,-0.19l-0.4,-0.188l-0.401,-0.186l-0.4,-0.184l-0.402,-0.182l-0.402,-0.179l-0.402,-0.177l-0.402,-0.175l-0.404,-0.173l-0.403,-0.171l-0.404,-0.168l-0.405,-0.166l-0.405,-0.163l-0.406,-0.162l-0.406,-0.158l-0.407,-0.157l-0.407,-0.154l-0.408,-0.151l-0.409,-0.149l-0.409,-0.146l-0.409,-0.144l-0.411,-0.141l-0.411,-0.139l-0.411,-0.136l-0.412,-0.133l-0.413,-0.131l-0.414,-0.128l-0.417,-0.126l-0.204,-0.061l-0.208,-0.061l-0.208,-0.06l-0.208,-0.06l-0.208,-0.058l-0.208,-0.059l-0.209,-0.057l-0.208,-0.057l-0.209,-0.056l-0.209,-0.055l-0.209,-0.054l-0.21,-0.054l-0.21,-0.053l-0.209,-0.053l-0.21,-0.051l-0.211,-0.051l-0.21,-0.051l-0.211,-0.049l-0.211,-0.049l-0.211,-0.048l-0.211,-0.047l-0.211,-0.046l-0.212,-0.046l-0.212,-0.045l-0.212,-0.044l-0.212,-0.044l-0.213,-0.042l-0.213,-0.042l-0.213,-0.041l-0.213,-0.041l-0.213,-0.039l-0.214,-0.039l-0.214,-0.038l-0.214,-0.037l-0.215,-0.037l-0.214,-0.035l-0.215,-0.035l-0.216,-0.034l-0.215,-0.033l-0.216,-0.033l-0.216,-0.031l-0.216,-0.031l-0.216,-0.03l-0.217,-0.029l-0.217,-0.028l-0.217,-0.028l-0.217,-0.027l-0.218,-0.025l-0.218,-0.025l-0.218,-0.025l-0.219,-0.023l-0.219,-0.022l-0.219,-0.022l-0.219,-0.021l-0.22,-0.02l-0.22,-0.019l-0.22,-0.018l-0.221,-0.017l-0.221,-0.017l-0.221,-0.015l-0.221,-0.015l-0.222,-0.014l-0.222,-0.013l-0.222,-0.012l-0.223,-0.011l-0.223,-0.01l-0.223,-0.01l-0.224,-0.008l-0.224,-0.008l-0.224,-0.006l-0.224,-0.006l-0.225,-0.005l-0.226,-0.004l-0.225,-0.003l-0.226,-0.002l-0.226,-0.001l-0.227,0l-0.227,0l-0.227,0.002l-0.227,0.003l-0.228,0.003l-0.229,0.005l-0.228,0.005l-0.229,0.007l-0.229,0.007l-0.23,0.008l-0.23,0.01l-0.231,0.01l-0.23,0.011l-0.232,0.012l-0.231,0.014l-0.232,0.014l-0.232,0.015l-0.233,0.016l-0.233,0.017l-0.234,0.019l-0.233,0.019l-0.235,0.02l-0.234,0.021l-0.235,0.022l-0.236,0.024l-0.236,0.024l-0.236,0.025l-0.236,0.027l-0.237,0.027l-0.238,0.029l-0.238,0.029l-0.238,0.031l-0.239,0.031l-0.239,0.033l-0.239,0.034l-0.24,0.034l-0.241,0.036l-0.241,0.037l-0.241,0.038l-0.242,0.039l-0.242,0.041l-0.242,0.041l-0.243,0.042l-0.244,0.044l-0.244,0.045l-0.244,0.045l-0.245,0.047l-0.245,0.048l-0.246,0.049l-0.246,0.05l-0.247,0.052l-0.247,0.052l-0.247,0.054l-0.248,0.055l-0.249,0.056l-0.249,0.057l-0.249,0.058l-0.25,0.059l-0.251,0.061l-0.251,0.061l-0.251,0.063l-0.252,0.065l-0.252,0.065l-0.261,0.068l-0.292,0.066l-0.296,0.043l-0.299,0.021l-0.299,-0.002l-0.299,-0.024l-0.296,-0.046l-0.291,-0.068l-0.286,-0.089l-0.278,-0.111l-0.269,-0.131l-0.259,-0.151l-0.246,-0.17l-0.233,-0.188l-0.219,-0.204l-0.203,-0.221l-0.185,-0.235l-0.168,-0.248l-0.148,-0.26l-0.129,-0.27l-0.108,-0.279l-0.087,-0.287l-0.065,-0.292l-0.043,-0.296l-0.021,-0.299l0.001,-0.3l0.024,-0.298l0.046,-0.296l0.068,-0.291l0.09,-0.286l0.11,-0.278l0.132,-0.269l0.15,-0.259l0.17,-0.247l0.188,-0.233l0.205,-0.218l0.22,-0.203l0.235,-0.186l0.248,-0.167l0.26,-0.148l0.271,-0.129l0.279,-0.108l0.286,-0.087l0.276,-0.073l0.283,-0.073l0.283,-0.072l0.282,-0.07l0.281,-0.07l0.282,-0.068l0.281,-0.066l0.28,-0.066l0.281,-0.064l0.279,-0.063l0.28,-0.062l0.279,-0.06l0.279,-0.059l0.278,-0.058l0.278,-0.057l0.277,-0.055l0.277,-0.055l0.277,-0.053l0.276,-0.051l0.276,-0.051l0.276,-0.049l0.275,-0.048l0.275,-0.047l0.275,-0.045l0.274,-0.045l0.274,-0.043l0.273,-0.042l0.273,-0.041l0.272,-0.039l0.273,-0.039l0.272,-0.037l0.271,-0.036l0.271,-0.034l0.271,-0.034l0.27,-0.032l0.27,-0.032l0.27,-0.03l0.269,-0.029l0.269,-0.027l0.268,-0.027l0.268,-0.025l0.268,-0.024l0.267,-0.024l0.267,-0.021l0.267,-0.021l0.266,-0.02l0.266,-0.018l0.266,-0.018l0.265,-0.016l0.264,-0.015l0.265,-0.014l0.264,-0.013l0.263,-0.012l0.264,-0.01l0.263,-0.01l0.262,-0.008l0.262,-0.008l0.262,-0.006l0.262,-0.005l0.261,-0.004l0.26,-0.003l0.261,-0.002l0.26,-0.001l0.259,0Z" style="fill:#670000;"/><path d="M42.808,139.461l0.244,0.001l0.243,0.002l0.244,0.003l0.243,0.003l0.243,0.005l0.243,0.005l0.243,0.006l0.243,0.006l0.243,0.008l0.245,0.009l0.482,0.018l0.484,0.023l0.483,0.025l0.483,0.028l0.483,0.032l0.482,0.034l0.481,0.037l0.481,0.04l0.48,0.043l0.48,0.046l0.479,0.049l0.479,0.051l0.478,0.054l0.478,0.057l0.477,0.06l0.477,0.062l0.476,0.064l0.476,0.067l0.475,0.07l0.474,0.072l0.474,0.074l0.474,0.077l0.473,0.079l0.473,0.082l0.472,0.083l0.471,0.086l0.471,0.088l0.471,0.091l0.47,0.092l0.47,0.095l0.469,0.096l0.468,0.099l0.468,0.1l0.468,0.103l0.467,0.104l0.467,0.106l0.466,0.108l0.466,0.11l0.465,0.112l0.465,0.113l0.465,0.115l0.464,0.117l0.464,0.118l0.463,0.12l0.462,0.122l0.463,0.122l0.462,0.125l0.461,0.126l0.461,0.127l0.461,0.129l0.46,0.13l0.46,0.131l0.459,0.133l0.459,0.133l0.459,0.135l0.458,0.136l0.458,0.138l0.453,0.137l0.29,0.1l0.282,0.122l0.271,0.143l0.259,0.163l0.247,0.183l0.231,0.201l0.216,0.218l0.198,0.234l0.18,0.249l0.16,0.262l0.139,0.273l0.119,0.283l0.096,0.291l0.073,0.298l0.051,0.302l0.028,0.306l0.003,0.306l-0.019,0.306l-0.043,0.304l-0.066,0.3l-0.089,0.293l-0.111,0.286l-0.133,0.277l-0.153,0.265l-0.173,0.253l-0.192,0.24l-0.21,0.223l-0.226,0.207l-0.242,0.189l-0.255,0.17l-0.268,0.15l-0.278,0.129l-0.287,0.107l-0.295,0.086l-0.3,0.062l-0.305,0.039l-0.306,0.015l-0.307,-0.007l-0.305,-0.032l-0.301,-0.054l-0.297,-0.078l-0.444,-0.134l-0.439,-0.132l-0.439,-0.13l-0.438,-0.129l-0.439,-0.128l-0.438,-0.126l-0.438,-0.125l-0.438,-0.124l-0.438,-0.122l-0.438,-0.121l-0.437,-0.12l-0.438,-0.117l-0.437,-0.117l-0.437,-0.114l-0.437,-0.113l-0.436,-0.112l-0.437,-0.11l-0.436,-0.108l-0.437,-0.106l-0.436,-0.105l-0.436,-0.102l-0.435,-0.101l-0.436,-0.1l-0.436,-0.097l-0.435,-0.095l-0.435,-0.094l-0.435,-0.091l-0.435,-0.09l-0.435,-0.087l-0.435,-0.086l-0.434,-0.083l-0.435,-0.081l-0.434,-0.079l-0.435,-0.078l-0.434,-0.074l-0.434,-0.073l-0.434,-0.07l-0.433,-0.068l-0.434,-0.066l-0.434,-0.064l-0.433,-0.061l-0.433,-0.059l-0.434,-0.056l-0.433,-0.054l-0.433,-0.051l-0.433,-0.049l-0.433,-0.047l-0.433,-0.044l-0.433,-0.041l-0.432,-0.039l-0.433,-0.036l-0.433,-0.033l-0.432,-0.031l-0.433,-0.028l-0.432,-0.026l-0.433,-0.022l-0.432,-0.02l-0.436,-0.017l-0.213,-0.008l-0.216,-0.006l-0.216,-0.007l-0.217,-0.005l-0.216,-0.004l-0.216,-0.004l-0.216,-0.003l-0.217,-0.003l-0.216,-0.001l-0.216,-0.001l-0.216,-0.001l-0.217,0.001l-0.216,0.001l-0.216,0.002l-0.216,0.003l-0.217,0.004l-0.216,0.004l-0.216,0.005l-0.217,0.006l-0.216,0.007l-0.216,0.007l-0.217,0.009l-0.216,0.009l-0.216,0.009l-0.217,0.011l-0.216,0.011l-0.217,0.013l-0.216,0.013l-0.217,0.013l-0.216,0.015l-0.217,0.015l-0.216,0.017l-0.217,0.017l-0.217,0.018l-0.216,0.018l-0.217,0.02l-0.217,0.02l-0.217,0.021l-0.216,0.022l-0.217,0.023l-0.217,0.024l-0.217,0.025l-0.217,0.025l-0.217,0.026l-0.217,0.028l-0.217,0.028l-0.218,0.028l-0.217,0.03l-0.217,0.031l-0.218,0.031l-0.217,0.033l-0.217,0.033l-0.218,0.034l-0.217,0.035l-0.218,0.036l-0.218,0.037l-0.217,0.038l-0.218,0.039l-0.218,0.039l-0.218,0.041l-0.218,0.041l-0.218,0.043l-0.218,0.043l-0.219,0.044l-0.218,0.046l-0.218,0.046l-0.219,0.047l-0.218,0.048l-0.219,0.049l-0.219,0.05l-0.218,0.051l-0.219,0.052l-0.219,0.053l-0.219,0.053l-0.219,0.055l-0.22,0.056l-0.219,0.057l-0.219,0.058l-0.22,0.058l-0.219,0.06l-0.22,0.061l-0.22,0.062l-0.22,0.062l-0.22,0.064l-0.22,0.065l-0.22,0.066l-0.221,0.067l-0.22,0.068l-0.221,0.069l-0.22,0.07l-0.221,0.071l-0.221,0.072l-0.221,0.073l-0.221,0.074l-0.221,0.076l-0.222,0.076l-0.221,0.077l-0.222,0.079l-0.222,0.079l-0.222,0.081l-0.222,0.082l-0.222,0.083l-0.222,0.084l-0.222,0.085l-0.223,0.086l-0.223,0.087l-0.223,0.089l-0.222,0.089l-0.224,0.091l-0.223,0.092l-0.223,0.093l-0.224,0.094l-0.223,0.095l-0.224,0.096l-0.224,0.098l-0.224,0.098l-0.225,0.1l-0.224,0.101l-0.225,0.102l-0.224,0.104l-0.225,0.104l-0.225,0.106l-0.225,0.107l-0.226,0.108l-0.225,0.11l-0.226,0.11l-0.226,0.112l-0.226,0.113l-0.226,0.114l-0.226,0.116l-0.227,0.116l-0.226,0.118l-0.227,0.119l-0.227,0.121l-0.228,0.121l-0.227,0.123l-0.227,0.124l-0.228,0.126l-0.228,0.126l-0.235,0.132l-0.273,0.14l-0.283,0.118l-0.291,0.097l-0.298,0.074l-0.302,0.051l-0.306,0.027l-0.306,0.004l-0.306,-0.019l-0.304,-0.043l-0.3,-0.066l-0.293,-0.089l-0.286,-0.11l-0.277,-0.133l-0.265,-0.153l-0.254,-0.173l-0.239,-0.192l-0.224,-0.21l-0.207,-0.226l-0.189,-0.242l-0.17,-0.255l-0.15,-0.267l-0.129,-0.278l-0.108,-0.288l-0.085,-0.294l-0.062,-0.301l-0.04,-0.304l-0.016,-0.306l0.008,-0.307l0.031,-0.305l0.055,-0.302l0.077,-0.296l0.1,-0.29l0.122,-0.282l0.142,-0.271l0.164,-0.26l0.182,-0.246l0.201,-0.232l0.219,-0.216l0.234,-0.198l0.248,-0.18l0.262,-0.16l0.248,-0.139l0.256,-0.142l0.255,-0.141l0.255,-0.139l0.256,-0.138l0.255,-0.137l0.255,-0.135l0.255,-0.134l0.255,-0.133l0.255,-0.131l0.255,-0.131l0.255,-0.128l0.255,-0.128l0.255,-0.126l0.255,-0.125l0.254,-0.123l0.255,-0.122l0.254,-0.121l0.255,-0.12l0.254,-0.118l0.255,-0.117l0.254,-0.116l0.254,-0.114l0.255,-0.113l0.254,-0.112l0.254,-0.111l0.254,-0.109l0.254,-0.108l0.254,-0.107l0.254,-0.106l0.253,-0.104l0.254,-0.103l0.254,-0.102l0.254,-0.101l0.253,-0.099l0.253,-0.098l0.254,-0.097l0.253,-0.096l0.253,-0.095l0.254,-0.093l0.253,-0.092l0.253,-0.091l0.253,-0.089l0.253,-0.089l0.253,-0.087l0.252,-0.086l0.253,-0.085l0.253,-0.083l0.252,-0.083l0.253,-0.081l0.252,-0.08l0.252,-0.079l0.252,-0.078l0.253,-0.076l0.252,-0.075l0.252,-0.075l0.252,-0.073l0.251,-0.072l0.252,-0.07l0.252,-0.07l0.251,-0.068l0.252,-0.068l0.251,-0.066l0.251,-0.065l0.252,-0.064l0.251,-0.063l0.251,-0.061l0.251,-0.061l0.25,-0.06l0.251,-0.058l0.251,-0.057l0.25,-0.056l0.251,-0.055l0.25,-0.054l0.25,-0.053l0.251,-0.052l0.25,-0.051l0.25,-0.049l0.25,-0.049l0.249,-0.047l0.25,-0.047l0.25,-0.045l0.249,-0.045l0.249,-0.043l0.25,-0.042l0.249,-0.041l0.249,-0.041l0.249,-0.039l0.249,-0.038l0.248,-0.037l0.249,-0.036l0.248,-0.035l0.249,-0.034l0.248,-0.033l0.248,-0.032l0.248,-0.031l0.248,-0.03l0.248,-0.029l0.247,-0.028l0.248,-0.027l0.248,-0.026l0.247,-0.026l0.247,-0.024l0.247,-0.023l0.247,-0.022l0.247,-0.022l0.247,-0.02l0.246,-0.019l0.247,-0.019l0.246,-0.017l0.246,-0.017l0.247,-0.016l0.246,-0.014l0.245,-0.014l0.246,-0.013l0.246,-0.012l0.245,-0.011l0.246,-0.011l0.245,-0.009l0.245,-0.008l0.245,-0.008l0.245,-0.007l0.245,-0.005l0.244,-0.005l0.245,-0.004l0.244,-0.004l0.244,-0.002l0.244,-0.001l0.244,-0.001l0.244,0Z" style="fill:#670000;"/><path d="M88.042,131.847c10.384,-30.346 20.183,-13.347 30.029,0.071" style="fill:#ff3038;fill-rule:nonzero;stroke:#670000;stroke-width:8.01px;"/><path d="M168.089,130.629c-13.323,-29.17 -21.399,-11.292 -29.874,3.03" style="fill:#ff3038;fill-rule:nonzero;stroke:#670000;stroke-width:8.01px;"/><path d="M212.612,130.471c-25.675,-2.265 -20.488,18.353 7.718,22.822c0,0 2.857,-0.599 6.496,-1.669c-1.615,-6.396 -3.7,-13.098 -6.389,-19.907c-2.854,-0.613 -5.484,-1.037 -7.821,-1.246l-0.004,0Zm8.927,26.394c-22.204,-1.957 -17.732,15.89 6.662,19.756c0,0 1.35,-0.258 3.303,-0.776c-0.804,-5.387 -1.789,-11.414 -3.195,-17.886c-2.473,-0.531 -4.749,-0.915 -6.77,-1.094Zm7.466,21.759c-19.103,-1.684 -15.23,13.665 5.754,16.992l0.029,0.004c-1.055,-3.705 -1.791,-9.466 -2.818,-16.616c-1.033,-0.165 -2.039,-0.298 -2.965,-0.38Zm14.753,25.441l-12.538,29.239c4.347,1.666 8.837,3.698 13.306,5.805l8.037,-30.564c-3.235,-1.629 -6.253,-3.13 -8.805,-4.48Zm18.425,9.523l-7.532,30.366c3.583,1.687 7.061,3.278 10.328,4.584l13.1,-24.197c-4.555,-3.998 -10.197,-7.573 -15.894,-10.739l-0.002,-0.014Z" style="fill:#b00000;fill-rule:nonzero;"/><path d="M232.932,138.269l0.252,0.001l0.253,0.002l0.253,0.004l0.253,0.004l0.254,0.006l0.254,0.006l0.254,0.008l0.254,0.008l0.255,0.01l0.255,0.01l0.255,0.012l0.256,0.013l0.255,0.014l0.256,0.014l0.257,0.016l0.256,0.017l0.257,0.018l0.257,0.02l0.257,0.02l0.258,0.021l0.258,0.023l0.258,0.023l0.258,0.025l0.259,0.025l0.259,0.027l0.259,0.028l0.26,0.029l0.259,0.03l0.26,0.032l0.26,0.032l0.261,0.033l0.261,0.035l0.261,0.036l0.261,0.037l0.262,0.038l0.261,0.039l0.263,0.041l0.262,0.041l0.263,0.043l0.262,0.044l0.264,0.045l0.263,0.046l0.264,0.047l0.264,0.049l0.264,0.05l0.264,0.051l0.265,0.052l0.265,0.053l0.265,0.055l0.266,0.055l0.265,0.057l0.266,0.058l0.267,0.06l0.266,0.06l0.267,0.062l0.267,0.063l0.268,0.064l0.267,0.066l0.268,0.066l0.268,0.068l0.268,0.07l0.269,0.07l0.269,0.072l0.269,0.073l0.269,0.074l0.27,0.075l0.27,0.077l0.27,0.078l0.271,0.079l0.27,0.08l0.271,0.082l0.271,0.083l0.272,0.084l0.272,0.086l0.272,0.087l0.272,0.088l0.273,0.09l0.272,0.09l0.273,0.092l0.274,0.094l0.273,0.094l0.274,0.096l0.274,0.098l0.275,0.098l0.274,0.1l0.268,0.099l0.283,0.117l0.274,0.138l0.262,0.159l0.25,0.178l0.235,0.197l0.219,0.215l0.202,0.23l0.184,0.246l0.165,0.259l0.144,0.27l0.123,0.281l0.102,0.29l0.079,0.296l0.056,0.302l0.032,0.305l0.01,0.306l-0.015,0.306l-0.037,0.305l-0.061,0.3l-0.084,0.296l-0.106,0.287l-0.127,0.279l-0.149,0.268l-0.169,0.257l-0.188,0.242l-0.206,0.227l-0.222,0.211l-0.239,0.193l-0.252,0.175l-0.265,0.154l-0.276,0.134l-0.285,0.113l-0.293,0.09l-0.299,0.067l-0.304,0.045l-0.306,0.021l-0.307,-0.003l-0.305,-0.026l-0.303,-0.049l-0.298,-0.072l-0.292,-0.095l-0.253,-0.093l-0.245,-0.089l-0.244,-0.088l-0.244,-0.087l-0.244,-0.086l-0.244,-0.084l-0.243,-0.083l-0.243,-0.082l-0.242,-0.08l-0.242,-0.08l-0.242,-0.078l-0.241,-0.077l-0.241,-0.076l-0.241,-0.075l-0.24,-0.073l-0.24,-0.073l-0.24,-0.071l-0.239,-0.07l-0.239,-0.069l-0.238,-0.068l-0.239,-0.066l-0.237,-0.066l-0.238,-0.064l-0.237,-0.063l-0.237,-0.062l-0.237,-0.061l-0.236,-0.06l-0.236,-0.059l-0.235,-0.058l-0.235,-0.056l-0.235,-0.056l-0.235,-0.054l-0.234,-0.053l-0.234,-0.052l-0.234,-0.051l-0.233,-0.05l-0.233,-0.049l-0.233,-0.048l-0.232,-0.047l-0.233,-0.046l-0.231,-0.044l-0.232,-0.044l-0.231,-0.042l-0.231,-0.042l-0.231,-0.04l-0.23,-0.04l-0.23,-0.038l-0.23,-0.038l-0.23,-0.036l-0.229,-0.035l-0.229,-0.034l-0.228,-0.034l-0.229,-0.032l-0.228,-0.031l-0.228,-0.031l-0.227,-0.029l-0.228,-0.028l-0.227,-0.028l-0.227,-0.026l-0.226,-0.025l-0.226,-0.025l-0.226,-0.023l-0.226,-0.022l-0.226,-0.022l-0.225,-0.02l-0.225,-0.02l-0.225,-0.019l-0.224,-0.017l-0.225,-0.017l-0.224,-0.016l-0.223,-0.015l-0.224,-0.013l-0.223,-0.013l-0.224,-0.012l-0.223,-0.012l-0.222,-0.01l-0.223,-0.009l-0.222,-0.008l-0.222,-0.008l-0.222,-0.006l-0.221,-0.006l-0.222,-0.005l-0.221,-0.004l-0.221,-0.003l-0.221,-0.002l-0.22,-0.001l-0.221,0l-0.22,0l-0.22,0.002l-0.22,0.002l-0.219,0.003l-0.22,0.004l-0.219,0.005l-0.219,0.006l-0.219,0.006l-0.218,0.008l-0.219,0.008l-0.218,0.009l-0.218,0.01l-0.218,0.011l-0.218,0.011l-0.217,0.013l-0.218,0.013l-0.217,0.014l-0.217,0.015l-0.217,0.016l-0.217,0.016l-0.216,0.018l-0.217,0.018l-0.216,0.019l-0.216,0.019l-0.216,0.021l-0.216,0.021l-0.216,0.022l-0.215,0.023l-0.216,0.024l-0.215,0.024l-0.215,0.026l-0.215,0.026l-0.215,0.026l-0.214,0.028l-0.215,0.028l-0.214,0.029l-0.215,0.03l-0.214,0.031l-0.214,0.031l-0.214,0.032l-0.213,0.033l-0.214,0.033l-0.213,0.035l-0.214,0.035l-0.213,0.035l-0.213,0.037l-0.213,0.037l-0.213,0.038l-0.213,0.039l-0.212,0.039l-0.213,0.04l-0.213,0.041l-0.209,0.041l-0.427,0.085l-0.424,0.088l-0.424,0.091l-0.423,0.093l-0.422,0.096l-0.423,0.099l-0.422,0.101l-0.421,0.104l-0.421,0.106l-0.421,0.11l-0.421,0.111l-0.42,0.114l-0.42,0.117l-0.419,0.119l-0.42,0.122l-0.419,0.124l-0.418,0.126l-0.419,0.129l-0.418,0.131l-0.418,0.133l-0.417,0.136l-0.418,0.138l-0.417,0.14l-0.417,0.143l-0.416,0.144l-0.417,0.147l-0.416,0.149l-0.416,0.151l-0.416,0.153l-0.415,0.155l-0.416,0.157l-0.415,0.159l-0.415,0.161l-0.415,0.163l-0.415,0.164l-0.414,0.167l-0.415,0.169l-0.414,0.17l-0.414,0.172l-0.414,0.174l-0.414,0.175l-0.414,0.178l-0.413,0.179l-0.414,0.18l-0.413,0.182l-0.414,0.184l-0.413,0.186l-0.413,0.186l-0.413,0.189l-0.413,0.19l-0.413,0.191l-0.413,0.193l-0.413,0.194l-0.413,0.195l-0.413,0.197l-0.413,0.198l-0.413,0.199l-0.416,0.203l-0.281,0.123l-0.29,0.102l-0.296,0.079l-0.302,0.056l-0.305,0.033l-0.306,0.009l-0.306,-0.014l-0.305,-0.037l-0.301,-0.061l-0.295,-0.084l-0.288,-0.105l-0.278,-0.128l-0.269,-0.149l-0.256,-0.168l-0.243,-0.188l-0.227,-0.206l-0.211,-0.222l-0.193,-0.238l-0.175,-0.253l-0.155,-0.264l-0.134,-0.276l-0.112,-0.286l-0.09,-0.293l-0.068,-0.299l-0.045,-0.303l-0.021,-0.306l0.002,-0.307l0.026,-0.306l0.049,-0.302l0.072,-0.298l0.095,-0.292l0.117,-0.284l0.138,-0.274l0.159,-0.262l0.178,-0.25l0.197,-0.235l0.214,-0.219l0.231,-0.202l0.245,-0.185l0.259,-0.164l0.27,-0.145l0.426,-0.207l0.431,-0.207l0.431,-0.207l0.432,-0.206l0.432,-0.205l0.433,-0.203l0.433,-0.202l0.434,-0.201l0.435,-0.2l0.435,-0.198l0.436,-0.198l0.436,-0.195l0.437,-0.195l0.438,-0.193l0.439,-0.191l0.439,-0.19l0.44,-0.189l0.44,-0.186l0.441,-0.186l0.442,-0.183l0.443,-0.182l0.443,-0.181l0.445,-0.178l0.444,-0.177l0.446,-0.175l0.447,-0.173l0.447,-0.171l0.448,-0.17l0.449,-0.167l0.449,-0.166l0.451,-0.163l0.451,-0.161l0.452,-0.16l0.453,-0.157l0.454,-0.155l0.454,-0.153l0.456,-0.15l0.456,-0.148l0.458,-0.146l0.458,-0.144l0.459,-0.141l0.46,-0.139l0.461,-0.137l0.462,-0.134l0.462,-0.131l0.464,-0.129l0.465,-0.126l0.465,-0.124l0.467,-0.121l0.468,-0.118l0.468,-0.115l0.47,-0.113l0.47,-0.11l0.472,-0.107l0.472,-0.104l0.474,-0.102l0.474,-0.098l0.472,-0.095l0.242,-0.047l0.238,-0.045l0.239,-0.045l0.239,-0.045l0.239,-0.043l0.239,-0.043l0.24,-0.042l0.24,-0.041l0.24,-0.04l0.241,-0.039l0.24,-0.039l0.241,-0.038l0.242,-0.037l0.241,-0.036l0.242,-0.035l0.242,-0.035l0.242,-0.034l0.243,-0.033l0.243,-0.032l0.243,-0.031l0.243,-0.03l0.244,-0.03l0.244,-0.028l0.244,-0.028l0.244,-0.027l0.245,-0.026l0.245,-0.025l0.245,-0.024l0.246,-0.024l0.245,-0.022l0.246,-0.021l0.247,-0.021l0.246,-0.02l0.247,-0.019l0.247,-0.018l0.248,-0.017l0.247,-0.016l0.248,-0.015l0.248,-0.014l0.249,-0.013l0.249,-0.013l0.249,-0.011l0.249,-0.01l0.249,-0.01l0.25,-0.008l0.25,-0.008l0.251,-0.006l0.25,-0.006l0.251,-0.004l0.251,-0.004l0.252,-0.003l0.251,-0.001l0.252,-0.001l0.253,0.001Z" style="fill:#670000;"/><path d="M238.773,112.704l0.278,0.002l0.279,0.003l0.279,0.004l0.28,0.005l0.281,0.006l0.281,0.008l0.281,0.008l0.283,0.01l0.283,0.011l0.283,0.012l0.284,0.013l0.284,0.015l0.286,0.015l0.285,0.017l0.287,0.018l0.286,0.019l0.288,0.021l0.288,0.021l0.289,0.023l0.289,0.024l0.29,0.025l0.29,0.026l0.291,0.028l0.284,0.028l0.289,0.039l0.287,0.061l0.281,0.081l0.274,0.102l0.266,0.121l0.257,0.14l0.245,0.159l0.234,0.176l0.22,0.193l0.205,0.208l0.189,0.223l0.173,0.235l0.155,0.248l0.137,0.259l0.117,0.268l0.098,0.276l0.077,0.282l0.056,0.287l0.035,0.29l0.014,0.292l-0.007,0.292l-0.029,0.292l-0.05,0.288l-0.071,0.283l-0.091,0.278l-0.111,0.271l-0.131,0.261l-0.15,0.251l-0.167,0.24l-0.185,0.227l-0.201,0.213l-0.215,0.197l-0.23,0.182l-0.242,0.164l-0.253,0.146l-0.264,0.127l-0.272,0.107l-0.279,0.088l-0.284,0.066l-0.289,0.046l-0.292,0.025l-0.292,0.003l-0.292,-0.018l-0.268,-0.027l-0.259,-0.024l-0.259,-0.024l-0.259,-0.022l-0.257,-0.022l-0.257,-0.02l-0.256,-0.019l-0.256,-0.018l-0.255,-0.017l-0.254,-0.016l-0.254,-0.015l-0.253,-0.014l-0.252,-0.013l-0.252,-0.012l-0.251,-0.01l-0.25,-0.01l-0.25,-0.009l-0.249,-0.007l-0.249,-0.007l-0.248,-0.005l-0.247,-0.005l-0.247,-0.003l-0.246,-0.003l-0.245,-0.001l-0.245,-0.001l-0.244,0.001l-0.244,0.001l-0.243,0.003l-0.243,0.003l-0.242,0.005l-0.241,0.005l-0.241,0.007l-0.24,0.007l-0.239,0.009l-0.239,0.009l-0.239,0.01l-0.238,0.012l-0.237,0.012l-0.237,0.013l-0.236,0.014l-0.236,0.015l-0.235,0.017l-0.234,0.017l-0.234,0.017l-0.234,0.019l-0.232,0.02l-0.233,0.021l-0.232,0.022l-0.231,0.022l-0.231,0.024l-0.23,0.024l-0.23,0.025l-0.229,0.027l-0.228,0.027l-0.229,0.028l-0.227,0.029l-0.228,0.03l-0.226,0.03l-0.226,0.032l-0.226,0.032l-0.225,0.034l-0.225,0.034l-0.224,0.035l-0.224,0.036l-0.223,0.037l-0.222,0.038l-0.223,0.038l-0.221,0.04l-0.222,0.04l-0.221,0.041l-0.22,0.042l-0.22,0.043l-0.219,0.043l-0.219,0.045l-0.219,0.045l-0.218,0.047l-0.218,0.047l-0.217,0.047l-0.217,0.049l-0.216,0.049l-0.216,0.051l-0.216,0.051l-0.215,0.052l-0.214,0.053l-0.214,0.053l-0.214,0.054l-0.214,0.056l-0.213,0.055l-0.212,0.057l-0.212,0.058l-0.212,0.058l-0.211,0.059l-0.211,0.06l-0.211,0.061l-0.21,0.061l-0.21,0.062l-0.209,0.063l-0.209,0.064l-0.209,0.065l-0.208,0.065l-0.208,0.066l-0.207,0.067l-0.207,0.067l-0.207,0.069l-0.206,0.069l-0.206,0.069l-0.206,0.071l-0.205,0.071l-0.205,0.072l-0.205,0.073l-0.204,0.074l-0.204,0.074l-0.203,0.075l-0.204,0.075l-0.203,0.077l-0.202,0.077l-0.202,0.078l-0.202,0.078l-0.201,0.08l-0.202,0.079l-0.2,0.081l-0.201,0.082l-0.2,0.082l-0.2,0.082l-0.2,0.084l-0.199,0.084l-0.199,0.085l-0.198,0.085l-0.199,0.087l-0.198,0.087l-0.197,0.087l-0.198,0.088l-0.197,0.089l-0.197,0.09l-0.196,0.09l-0.197,0.091l-0.195,0.092l-0.196,0.092l-0.195,0.093l-0.193,0.092l-0.392,0.191l-0.388,0.191l-0.387,0.194l-0.386,0.197l-0.385,0.199l-0.384,0.202l-0.383,0.204l-0.382,0.207l-0.38,0.209l-0.38,0.212l-0.379,0.214l-0.378,0.216l-0.377,0.218l-0.376,0.221l-0.375,0.224l-0.375,0.225l-0.373,0.228l-0.373,0.23l-0.371,0.232l-0.371,0.234l-0.37,0.236l-0.369,0.239l-0.369,0.24l-0.367,0.243l-0.367,0.245l-0.366,0.247l-0.366,0.248l-0.364,0.251l-0.364,0.253l-0.363,0.254l-0.363,0.257l-0.362,0.258l-0.361,0.26l-0.36,0.262l-0.36,0.264l-0.359,0.266l-0.359,0.267l-0.358,0.269l-0.358,0.271l-0.356,0.272l-0.357,0.274l-0.356,0.276l-0.355,0.277l-0.355,0.279l-0.354,0.281l-0.354,0.281l-0.353,0.284l-0.353,0.285l-0.352,0.286l-0.352,0.287l-0.352,0.289l-0.351,0.291l-0.35,0.291l-0.351,0.293l-0.35,0.295l-0.349,0.295l-0.349,0.297l-0.353,0.301l-0.229,0.181l-0.242,0.165l-0.253,0.146l-0.264,0.128l-0.271,0.108l-0.279,0.087l-0.285,0.067l-0.289,0.047l-0.291,0.025l-0.293,0.003l-0.291,-0.017l-0.29,-0.039l-0.287,-0.06l-0.281,-0.081l-0.274,-0.101l-0.266,-0.121l-0.257,-0.14l-0.246,-0.158l-0.234,-0.176l-0.22,-0.192l-0.206,-0.208l-0.19,-0.223l-0.173,-0.235l-0.155,-0.248l-0.137,-0.258l-0.118,-0.268l-0.098,-0.276l-0.077,-0.282l-0.057,-0.287l-0.036,-0.29l-0.014,-0.292l0.007,-0.292l0.028,-0.291l0.05,-0.289l0.07,-0.283l0.091,-0.278l0.111,-0.271l0.131,-0.262l0.149,-0.251l0.167,-0.24l0.184,-0.227l0.201,-0.213l0.215,-0.198l0.36,-0.308l0.364,-0.309l0.365,-0.309l0.366,-0.307l0.367,-0.307l0.368,-0.306l0.368,-0.305l0.369,-0.303l0.371,-0.303l0.371,-0.301l0.372,-0.301l0.373,-0.299l0.374,-0.298l0.376,-0.297l0.376,-0.296l0.377,-0.294l0.378,-0.293l0.379,-0.292l0.381,-0.29l0.381,-0.289l0.383,-0.288l0.384,-0.286l0.385,-0.284l0.386,-0.283l0.387,-0.282l0.388,-0.28l0.39,-0.278l0.391,-0.277l0.392,-0.275l0.394,-0.273l0.395,-0.271l0.396,-0.27l0.397,-0.268l0.399,-0.266l0.4,-0.264l0.402,-0.262l0.403,-0.261l0.404,-0.258l0.406,-0.256l0.407,-0.255l0.409,-0.252l0.41,-0.25l0.412,-0.248l0.413,-0.246l0.415,-0.244l0.416,-0.241l0.418,-0.239l0.42,-0.237l0.421,-0.234l0.423,-0.233l0.424,-0.229l0.426,-0.227l0.428,-0.225l0.429,-0.223l0.431,-0.219l0.433,-0.217l0.435,-0.215l0.433,-0.21l0.222,-0.107l0.219,-0.104l0.219,-0.104l0.221,-0.103l0.22,-0.102l0.221,-0.101l0.222,-0.101l0.221,-0.1l0.223,-0.1l0.223,-0.098l0.223,-0.098l0.224,-0.098l0.224,-0.096l0.224,-0.096l0.225,-0.095l0.226,-0.094l0.226,-0.094l0.227,-0.093l0.227,-0.092l0.227,-0.091l0.228,-0.091l0.228,-0.09l0.229,-0.089l0.23,-0.088l0.23,-0.088l0.23,-0.086l0.23,-0.086l0.232,-0.085l0.231,-0.085l0.233,-0.083l0.232,-0.083l0.234,-0.082l0.233,-0.081l0.234,-0.081l0.235,-0.079l0.235,-0.079l0.236,-0.078l0.236,-0.077l0.237,-0.076l0.237,-0.075l0.237,-0.075l0.239,-0.073l0.238,-0.073l0.239,-0.072l0.24,-0.071l0.24,-0.07l0.241,-0.07l0.241,-0.068l0.242,-0.068l0.242,-0.067l0.243,-0.065l0.243,-0.065l0.243,-0.064l0.245,-0.063l0.244,-0.063l0.246,-0.061l0.246,-0.06l0.246,-0.06l0.247,-0.058l0.247,-0.058l0.248,-0.057l0.248,-0.055l0.249,-0.055l0.249,-0.054l0.25,-0.053l0.251,-0.052l0.251,-0.051l0.251,-0.05l0.252,-0.049l0.253,-0.048l0.253,-0.047l0.254,-0.046l0.254,-0.046l0.255,-0.044l0.255,-0.043l0.256,-0.042l0.256,-0.041l0.257,-0.041l0.257,-0.039l0.258,-0.038l0.258,-0.037l0.259,-0.036l0.26,-0.036l0.26,-0.034l0.26,-0.033l0.262,-0.032l0.261,-0.031l0.262,-0.03l0.263,-0.029l0.263,-0.028l0.264,-0.027l0.265,-0.026l0.265,-0.024l0.265,-0.024l0.266,-0.023l0.267,-0.021l0.267,-0.021l0.267,-0.019l0.269,-0.018l0.269,-0.018l0.269,-0.016l0.27,-0.015l0.27,-0.014l0.271,-0.013l0.272,-0.012l0.272,-0.01l0.272,-0.01l0.274,-0.008l0.273,-0.008l0.275,-0.006l0.275,-0.005l0.275,-0.004l0.276,-0.003l0.277,-0.002l0.277,0l0.278,0Z" style="fill:#670000;"/><path d="M77.869,95.661c-3.015,-6.64 1.314,-19.54 7.682,-20.208c6.368,-0.667 28.858,8.991 25.934,16.68c-2.922,7.689 -30.6,10.169 -33.616,3.528Z" style="fill:#b00000;fill-rule:nonzero;"/><path d="M143.236,97.715c-2.307,-6.594 5.122,-22.313 11.149,-22.513c6.027,-0.201 24.268,12.908 21.055,20.161c-3.212,7.259 -29.896,8.942 -32.204,2.352Z" style="fill:#b00000;fill-rule:nonzero;"/><path d="M139.011,160.738c-9.45,6.073 -15.064,3.345 -20.197,-0.496" style="fill:#ff3038;fill-rule:nonzero;stroke:#670000;stroke-width:8.01px;"/><path d="M127.795,95.022c0.369,-0.434 -7.488,-29.95 -45.037,-46.264c-21.605,48.842 -76.336,123.473 -38.959,168.039c36.353,43.346 143.037,17.06 166.602,12.799c23.561,-4.264 70.701,38.03 76.889,15.984c6.238,-24.526 -46.023,-39.411 -51.07,-46.576c-5.051,-7.164 -2.846,-44.476 -21.899,-80.707c-12.441,-27.75 -34.782,-57.345 -60.026,-70.281l-26.5,47.006Z" style="fill:none;stroke:#670000;stroke-width:8.01px;"/></g></svg>